# xmcd
#
# Track frame offsets:
#	150
#	16156
#	31127
#	46715
#	62010
#	77501
#	89456
#	103069
#	117428
#	128387
#	141292
#	159058
#	176485
#	189288
#	203929
#
# Disc length: 2885 seconds
#
# Revision: 1
# Processed by: cddbd v1.5.1PL0 Copyright (c) Steve Scherf et al.
# Submitted via: audiograbber 1.83.01
#
DISCID=b10b430f
DTITLE=George Jones - CKC026
DYEAR=1900
DGENRE=Karaoke
TTITLE0=He Stopped Loving Her Today
TTITLE1=Ceremony
TTITLE2=Grand Tour
TTITLE3=You Can Have Her
TTITLE4=Golden Ring
TTITLE5=Near You
TTITLE6=Two Story House
TTITLE7=Who's Gonna Fill Their Shoes
TTITLE8=Walk Through This World With Me
TTITLE9=Man He Was
TTITLE10=50,000 Names
TTITLE11=What I Didn't Do
TTITLE12=White Lightnin
TTITLE13=Beer Run
TTITLE14=Picture Of Me Without You
EXTD=
EXTT0=
EXTT1=
EXTT2=
EXTT3=
EXTT4=
EXTT5=
EXTT6=
EXTT7=
EXTT8=
EXTT9=
EXTT10=
EXTT11=
EXTT12=
EXTT13=
EXTT14=
PLAYORDER=
